<?xml version="1.0" encoding="utf-8"?>
<!-- Generator: Adobe Illustrator 27.3.1, SVG Export Plug-In . SVG Version: 6.00 Build 0)  -->
<svg version="1.1" id="Layer_1" xmlns="http://www.w3.org/2000/svg" xmlns:xlink="http://www.w3.org/1999/xlink" x="0px" y="0px"
	 viewBox="0 0 16 16" style="enable-background:new 0 0 16 16;" xml:space="preserve">
<style type="text/css">
	.st0{fill:#0E7ABF;}
	.st1{fill:#168BB7;}
	.st2{fill:#E3E7E6;}
	.st3{fill:#4AC3D6;}
	.st4{fill:#DE1C49;}
	.st5{fill:#E5664B;}
</style>
<g>
	<path class="st0" d="M10.24,4.77c0,0,0,3.49,0,7.35s-3.69,3.86-3.69,3.86s0-3.56,0-7.39S10.04,4.77,10.24,4.77z"/>
	<path class="st1" d="M8.5,4.28c0,0-0.46-1.55,0.49-2.41c0,0-0.2-0.96-1.39-1.73c0,0-0.66,1-0.52,2.17C7.21,3.47,8.5,4.28,8.5,4.28z
		"/>
	<path class="st2" d="M9.13,0.02c0,0-0.47,0.11-0.75,0.55C8.72,0.8,9.11,1.14,9.38,1.63C9.92,2.63,9.29,3.76,8.9,4.32
		c0.33-0.18,1.15-0.75,1.22-1.93C10.2,0.92,9.13,0.02,9.13,0.02z"/>
	<path class="st3" d="M8.77,4.39c0,0,1.2-2.13-1.17-4.25c0,0,1.16,0.35,1.75,1.43C9.94,2.64,9.14,3.89,8.77,4.39z"/>
	<path class="st4" d="M5.76,3.84c0,0,0.67,1.53,2.82,0.92c0,0-1.35-0.09-1.77-1.09C6.81,3.67,6.24,3.64,5.76,3.84z"/>
	<path class="st5" d="M8.28,4.39c0,0-0.95-1.53-2.52-0.55C5.76,3.84,7.15,3.37,8.28,4.39z"/>
	<path class="st2" d="M7.06,2.62c-0.4,0.01-0.62,0.12-0.62,0.12c0.04,0.33,0.14,0.58,0.2,0.71C7.1,3.4,7.48,3.55,7.76,3.75
		C7.48,3.46,7.19,3.07,7.06,2.62z"/>
</g>
</svg>
